HIERARCHY
ROOT Hips
{
	OFFSET 0.00000 0.00000 0.00000
	CHANNELS 6 Xposition Yposition Zposition Zrotation Yrotation Xrotation 
	JOINT LHipJoint
	{
		OFFSET 0 0 0
		CHANNELS 3 Zrotation Yrotation Xrotation
		JOINT LeftUpLeg
		{
			OFFSET 1.26600 -1.82114 0.91038
			CHANNELS 3 Zrotation Yrotation Xrotation
			JOINT LeftLeg
			{
				OFFSET 2.50076 -6.87080 0.00000
				CHANNELS 3 Zrotation Yrotation Xrotation
				JOINT LeftFoot
				{
					OFFSET 2.57364 -7.07102 0.00000
					CHANNELS 3 Zrotation Yrotation Xrotation
					JOINT LeftToeBase
					{
						OFFSET 0.13572 -0.37290 1.97004
						CHANNELS 3 Zrotation Yrotation Xrotation
						End Site
						{
							OFFSET 0.00000 -0.00000 1.01383
						}
					}
				}
			}
		}
	}
	JOINT RHipJoint
	{
		OFFSET 0 0 0
		CHANNELS 3 Zrotation Yrotation Xrotation
		JOINT RightUpLeg
		{
			OFFSET -1.20803 -1.82114 0.91038
			CHANNELS 3 Zrotation Yrotation Xrotation
			JOINT RightLeg
			{
				OFFSET -2.54916 -7.00377 0.00000
				CHANNELS 3 Zrotation Yrotation Xrotation
				JOINT RightFoot
				{
					OFFSET -2.56374 -7.04382 0.00000
					CHANNELS 3 Zrotation Yrotation Xrotation
					JOINT RightToeBase
					{
						OFFSET -0.23520 -0.64621 2.09921
						CHANNELS 3 Zrotation Yrotation Xrotation
						End Site
						{
							OFFSET -0.00000 -0.00000 1.10065
						}
					}
				}
			}
		}
	}
	JOINT LowerBack
	{
		OFFSET 0 0 0
		CHANNELS 3 Zrotation Yrotation Xrotation
		JOINT Spine
		{
			OFFSET 0.05492 2.10797 -0.12074
			CHANNELS 3 Zrotation Yrotation Xrotation
			JOINT Spine1
			{
				OFFSET 0.04577 2.11592 -0.04483
				CHANNELS 3 Zrotation Yrotation Xrotation
				JOINT Neck
				{
					OFFSET 0 0 0
					CHANNELS 3 Zrotation Yrotation Xrotation
					JOINT Neck1
					{
						OFFSET -0.10759 1.80167 0.15770
						CHANNELS 3 Zrotation Yrotation Xrotation
						JOINT Head
						{
							OFFSET 0.09237 1.77509 -0.40848
							CHANNELS 3 Zrotation Yrotation Xrotation
							End Site
							{
								OFFSET 0.03805 1.84093 -0.15754
							}
						}
					}
				}
				JOINT LeftShoulder
				{
					OFFSET 0 0 0
					CHANNELS 3 Zrotation Yrotation Xrotation
					JOINT LeftArm
					{
						OFFSET 3.42372 1.09575 -0.28209
						CHANNELS 3 Zrotation Yrotation Xrotation
						JOINT LeftForeArm
						{
							OFFSET 4.95681 -0.00000 0.00000
							CHANNELS 3 Zrotation Yrotation Xrotation
							JOINT LeftHand
							{
								OFFSET 3.40915 -0.00000 0.00000
								CHANNELS 3 Zrotation Yrotation Xrotation
								JOINT LeftFingerBase
								{
									OFFSET 0 0 0
									CHANNELS 3 Zrotation Yrotation Xrotation
									JOINT LeftHandIndex1
									{
										OFFSET 0.61640 -0.00000 0.00000
										CHANNELS 3 Zrotation Yrotation Xrotation
										End Site
										{
											OFFSET 0.49696 -0.00000 0.00000
										}
									}
								}
								JOINT LThumb
								{
									OFFSET 0 0 0
									CHANNELS 3 Zrotation Yrotation Xrotation
									End Site
									{
										OFFSET 0.50455 -0.00000 0.50455
									}
								}
							}
						}
					}
				}
				JOINT RightShoulder
				{
					OFFSET 0 0 0
					CHANNELS 3 Zrotation Yrotation Xrotation
					JOINT RightArm
					{
						OFFSET -3.24731 1.15872 -0.32221
						CHANNELS 3 Zrotation Yrotation Xrotation
						JOINT RightForeArm
						{
							OFFSET -5.35200 -0.00000 0.00000
							CHANNELS 3 Zrotation Yrotation Xrotation
							JOINT RightHand
							{
								OFFSET -3.43721 -0.00000 -0.00000
								CHANNELS 3 Zrotation Yrotation Xrotation
								JOINT RightFingerBase
								{
									OFFSET 0 0 0
									CHANNELS 3 Zrotation Yrotation Xrotation
									JOINT RightHandIndex1
									{
										OFFSET -0.72009 -0.00000 0.00000
										CHANNELS 3 Zrotation Yrotation Xrotation
										End Site
										{
											OFFSET -0.58056 -0.00000 0.00000
										}
									}
								}
								JOINT RThumb
								{
									OFFSET 0 0 0
									CHANNELS 3 Zrotation Yrotation Xrotation
									End Site
									{
										OFFSET -0.58942 -0.00000 0.58942
									}
								}
							}
						}
					}
				}
			}
		}
	}
}
MOTION
Frames: 15
Frame Time: .0083333
19.8222 20.1866 -12.0125 -6.1876 4.5646 0.6388 0.0000 0.0000 0.0000 -15.7613 -11.5212 -16.1519 5.1253 13.5235 41.3612 0.2406 -17.9509 -14.7416 0.5642 4.8108 13.3697 0.0000 0.0000 0.0000 27.3100 -4.5260 -7.4627 -4.3628 -12.6282 37.9921 -1.9901 2.7199 -25.9748 -0.0207 0.9293 -2.5542 4.4078 2.5682 6.9954 2.5267 3.7616 2.4216 -0.1600 1.8814 -1.3005 -9.9564 -3.2189 -11.8503 4.8096 -3.6029 36.9021 3.2353 -2.2168 15.1600 -0.0000 -0.0000 0.0000 -86.1564 8.4328 17.2002 21.0240 -31.8564 -6.0626 -0.0000 0.0000 -5.0540 19.6547 14.0867 4.9682 -7.1250 0.0000 -0.0000 -7.2378 44.7774 0.0400 -0.0000 -0.0000 0.0000 85.3693 -2.5090 28.9240 -25.9948 37.2036 -8.8845 0.0000 -0.0000 -13.1703 -20.4028 11.6650 -4.3008 7.1250 -0.0000 -0.0000 4.7245 -17.5832 3.0871
19.8224 20.1744 -11.9773 -5.8838 4.8026 0.6024 0.0000 0.0000 0.0000 -16.1199 -11.3538 -16.0105 5.1193 13.5169 41.3356 0.2265 -18.1988 -14.7739 0.5725 4.8455 13.4684 0.0000 0.0000 0.0000 26.9542 -4.6936 -7.5482 -4.4470 -12.7326 38.3756 -2.0298 2.8956 -26.2040 -0.0159 0.8139 -2.2370 4.0436 2.6019 6.9734 2.4159 3.7810 2.3737 -0.0741 1.8894 -1.3538 -10.0106 -3.2768 -11.9641 4.7416 -3.6341 37.1056 3.2168 -2.2484 15.2922 -0.0000 0.0000 0.0000 -86.1566 8.6660 16.4656 20.7506 -31.5361 -5.9190 -0.0000 0.0000 -4.2800 21.0920 15.5008 5.8853 -7.1250 0.0000 -0.0000 -6.2183 46.4398 -0.2218 -0.0000 0.0000 0.0000 85.3546 -2.4928 28.9692 -25.6592 36.8701 -8.6823 0.0000 -0.0000 -12.7258 -21.1413 12.0362 -4.6102 7.1250 -0.0000 -0.0000 4.2199 -17.1250 2.7979
19.8244 20.1647 -11.9405 -5.6877 5.0809 0.5323 0.0000 0.0000 0.0000 -16.3595 -11.1283 -15.8933 5.1251 13.5233 41.3602 0.1913 -18.5574 -14.7019 0.5892 4.9147 13.6654 0.0000 0.0000 0.0000 26.7057 -4.9905 -7.6118 -4.5295 -12.8335 38.7483 -2.0572 3.0395 -26.3562 -0.0213 0.9433 -2.5927 3.9496 2.6755 6.9434 2.2437 3.8656 2.4146 -0.2019 1.9335 -1.2868 -10.1857 -3.4342 -12.1368 4.9258 -3.8656 37.1129 3.2889 -2.3439 15.3724 0.0000 -0.0000 0.0000 -85.9393 8.7061 16.4892 20.4368 -31.1650 -5.7557 -0.0000 0.0000 -4.9733 22.9822 15.9152 6.6335 -7.1250 0.0000 -0.0000 -4.5291 47.1381 -0.2394 0.0000 -0.0000 0.0000 85.4855 -2.4186 29.0165 -25.1625 36.3697 -8.3861 0.0000 -0.0000 -11.4385 -22.8441 12.7540 -5.3133 7.1250 -0.0000 -0.0000 3.0673 -16.1932 2.0933
19.8244 20.1485 -11.9072 -5.5963 5.3562 0.3401 0.0000 0.0000 0.0000 -16.4810 -10.9805 -15.6733 5.1465 13.5469 41.4520 0.1557 -18.9649 -14.6653 0.6318 5.0857 14.1532 0.0000 0.0000 0.0000 26.6079 -5.2210 -7.4974 -4.6055 -12.9253 39.0894 -2.0809 3.0079 -26.5203 -0.0207 0.9287 -2.5526 3.9032 2.7530 7.0025 2.0961 3.9611 2.5349 -0.3337 1.9844 -1.1852 -10.3108 -3.5925 -12.3414 5.1939 -4.1405 37.0604 3.3789 -2.4381 15.4361 -0.0000 -0.0000 0.0000 -85.7192 8.7123 16.5845 20.2719 -30.9686 -5.6706 -0.0000 0.0000 -6.0948 22.8542 14.7013 6.1053 -7.1250 0.0000 -0.0000 -4.4092 45.8258 -0.0900 -0.0000 -0.0000 0.0000 85.6687 -2.3347 29.0340 -24.2912 35.4706 -7.8749 0.0000 -0.0000 -9.3308 -25.2017 15.1988 -7.0334 7.1250 -0.0000 -0.0000 1.6157 -13.2722 1.2021
19.8256 20.1304 -11.8755 -5.5416 5.6501 0.1405 0.0000 0.0000 0.0000 -16.5763 -11.0480 -15.3853 5.1730 13.5760 41.5649 0.1150 -19.3353 -14.5706 0.7449 5.5132 15.3783 0.0000 0.0000 0.0000 26.5122 -5.5600 -7.4163 -4.6839 -13.0187 39.4387 -2.1118 3.1840 -26.6878 -0.0089 0.6090 -1.6734 3.7423 2.7827 7.0176 2.0713 3.9879 2.6065 -0.2705 1.9992 -1.1281 -10.4074 -3.6447 -12.3302 5.2930 -4.2237 37.0078 3.4237 -2.4715 15.4230 0.0000 -0.0000 0.0000 -85.7256 8.9145 16.2114 20.3493 -31.0609 -5.7105 -0.0000 0.0000 -6.0737 21.0979 15.4285 5.8605 -7.1250 0.0000 -0.0000 -6.1968 46.3647 -0.2095 0.0000 -0.0000 0.0000 85.6298 -2.3309 29.0708 -25.0152 36.2196 -8.2989 0.0000 -0.0000 -10.4818 -24.9665 12.6226 -5.8096 7.1250 -0.0000 -0.0000 1.5933 -16.1078 1.0891
19.8239 20.1171 -11.8438 -5.3771 5.9135 0.1204 0.0000 0.0000 0.0000 -16.7666 -11.1615 -15.2466 5.1926 13.5975 41.6484 0.0776 -19.5772 -14.4250 0.8146 5.7594 16.0880 0.0000 0.0000 0.0000 26.3228 -5.8085 -7.5426 -4.7711 -13.1213 39.8241 -2.1283 3.3075 -26.7704 -0.0072 0.5492 -1.5091 3.4505 2.8605 6.9195 2.0109 4.0683 2.5547 -0.1731 2.0380 -1.1412 -10.5889 -3.6518 -12.0351 5.4916 -4.2794 36.8724 3.5302 -2.4932 15.3038 -0.0000 -0.0000 0.0000 -85.6645 9.1618 15.9023 20.2553 -30.9487 -5.6621 -0.0000 0.0000 -5.8212 21.9599 17.4276 6.8858 -7.1250 0.0000 -0.0000 -5.8466 48.5913 -0.5195 -0.0000 -0.0000 0.0000 85.6077 -2.4978 28.9976 -25.2636 36.4722 -8.4461 0.0000 -0.0000 -10.8621 -25.0353 11.8372 -5.4727 7.1250 -0.0000 -0.0000 1.4975 -16.9579 0.9959
19.8202 20.1057 -11.8156 -5.1141 6.0924 0.1762 0.0000 0.0000 0.0000 -17.0504 -11.1706 -15.1908 5.2000 13.6055 41.6796 0.0748 -19.7277 -14.5036 0.7750 5.6210 15.6887 0.0000 0.0000 0.0000 26.0884 -5.8927 -7.7897 -4.8690 -13.2347 40.2536 -2.1246 2.8714 -26.8378 -0.0372 1.2447 -3.4225 3.0502 2.9909 6.9067 1.8911 4.2175 2.4157 -0.0896 2.1084 -1.2939 -10.6823 -3.6763 -11.7381 5.6147 -4.3599 36.8210 3.5870 -2.5246 15.2242 -0.0000 0.0000 0.0000 -85.5561 9.4429 15.5454 20.0291 -30.6774 -5.5462 -0.0000 0.0000 -5.7144 23.3953 17.9327 7.5877 -7.1250 0.0000 -0.0000 -4.5802 49.3484 -0.4920 -0.0000 0.0000 0.0000 85.6970 -2.7575 28.6233 -25.3337 36.5432 -8.4878 0.0000 -0.0000 -11.3608 -24.6143 12.3322 -5.5885 7.1250 -0.0000 -0.0000 1.8192 -16.4627 1.2297
19.8201 20.0971 -11.7858 -4.9948 6.4025 0.1105 0.0000 0.0000 0.0000 -17.2199 -11.2294 -15.0010 5.1997 13.6052 41.6783 0.0773 -19.9173 -14.6536 0.7341 5.4741 15.2658 0.0000 0.0000 0.0000 25.9744 -6.2443 -7.9925 -4.9696 -13.3495 40.6912 -2.1281 2.4922 -26.9452 -0.0848 1.8782 -5.1690 2.8519 3.0455 7.0207 1.7941 4.2830 2.3238 -0.0945 2.1381 -1.4577 -10.5790 -3.7470 -11.7560 5.4761 -4.4382 36.9888 3.5020 -2.5626 15.3138 -0.0000 -0.0000 0.0000 -85.4599 9.7165 14.9441 19.8960 -30.5168 -5.4784 -0.0000 0.0000 -5.4082 23.4854 16.9783 7.2311 -7.1250 0.0000 -0.0000 -4.2752 48.3453 -0.3534 -0.0000 -0.0000 0.0000 85.7975 -2.9562 28.0855 -25.6161 36.8271 -8.6565 0.0000 -0.0000 -12.4544 -23.2932 12.4320 -5.2953 7.1250 -0.0000 -0.0000 2.7405 -16.4935 1.8518
19.8198 20.0876 -11.7556 -5.0439 6.8944 -0.0382 0.0000 0.0000 0.0000 -17.2106 -11.3807 -14.7591 5.2018 13.6075 41.6874 0.0423 -20.2355 -14.5887 0.7862 5.6605 15.8023 0.0000 0.0000 0.0000 26.0180 -6.7669 -8.1109 -5.0633 -13.4547 41.0954 -2.1461 2.5617 -27.0469 -0.0773 1.7932 -4.9346 2.9780 3.0388 7.1576 1.6572 4.2845 2.3598 -0.3114 2.1393 -1.4765 -10.5269 -3.8571 -11.9784 5.5885 -4.6334 37.1260 3.5129 -2.6217 15.4585 0.0000 -0.0000 0.0000 -85.1903 9.6638 14.3690 19.6279 -30.1915 -5.3430 -0.0000 0.0000 -5.3306 23.7317 15.8596 6.8508 -7.1250 0.0000 -0.0000 -3.8072 47.1848 -0.2055 0.0000 -0.0000 0.0000 86.0297 -2.9144 27.5910 -25.7869 36.9975 -8.7591 0.0000 -0.0000 -12.9734 -22.6258 12.4409 -5.1308 7.1250 -0.0000 -0.0000 3.2037 -16.5514 2.1617
19.8181 20.0797 -11.7288 -5.1611 7.2642 -0.1631 0.0000 0.0000 0.0000 -17.0932 -11.4519 -14.5864 5.2073 13.6135 41.7109 0.0053 -20.5981 -14.5446 0.8516 5.8854 16.4521 0.0000 0.0000 0.0000 26.1770 -7.0195 -8.1674 -5.1437 -13.5438 41.4398 -2.1459 2.5496 -27.0486 -0.0545 1.5061 -4.1427 3.2065 3.0755 7.2626 1.5166 4.3486 2.4268 -0.5904 2.1731 -1.4355 -10.6580 -3.9752 -11.9521 5.9173 -4.8909 36.9564 3.6304 -2.7023 15.4128 0.0000 0.0000 0.0000 -84.8702 9.4687 14.0074 19.3579 -29.8610 -5.2079 -0.0000 0.0000 -5.7439 23.8802 15.5744 6.7788 -7.1250 0.0000 -0.0000 -3.6112 46.8997 -0.1695 0.0000 0.0000 0.0000 86.2663 -2.7642 27.2709 -25.7505 36.9613 -8.7372 0.0000 -0.0000 -13.0463 -22.7884 12.6090 -5.2400 7.1250 -0.0000 -0.0000 3.0989 -16.3546 2.1040
19.8190 20.0766 -11.7014 -5.1636 7.4941 -0.1913 0.0000 0.0000 0.0000 -17.1111 -11.4653 -14.4800 5.2180 13.6251 41.7560 0.0203 -20.7331 -14.7601 0.7953 5.6924 15.8945 0.0000 0.0000 0.0000 26.2060 -7.1356 -8.2579 -5.2083 -13.6146 41.7150 -2.1369 2.4347 -27.0160 -0.0400 1.2901 -3.5475 3.1731 3.1308 7.2880 1.4774 4.4204 2.4201 -0.6195 2.2086 -1.4536 -10.8974 -4.0568 -11.7939 6.0512 -5.0046 36.8467 3.7095 -2.7653 15.3499 -0.0000 -0.0000 0.0000 -84.8161 9.5227 13.8455 19.3737 -29.8804 -5.2157 -0.0000 0.0000 -6.6772 24.0308 16.7388 7.3176 -7.1250 0.0000 -0.0000 -3.6992 48.1714 -0.2898 -0.0000 -0.0000 0.0000 86.2575 -2.6039 27.1964 -25.5877 36.7986 -8.6395 0.0000 -0.0000 -12.9417 -23.0647 12.3928 -5.2214 7.1250 -0.0000 -0.0000 2.8970 -16.5589 1.9537
19.8210 20.0734 -11.6693 -4.9139 7.8666 -0.1523 0.0000 0.0000 0.0000 -17.4461 -11.6567 -14.3534 5.2288 13.6369 41.8021 0.0493 -20.7632 -15.0105 0.7543 5.5471 15.4757 0.0000 0.0000 0.0000 25.9097 -7.5309 -8.4446 -5.2615 -13.6723 41.9404 -2.1418 2.4276 -27.0503 -0.0392 1.2787 -3.5160 2.7405 3.0905 7.1822 1.4908 4.3334 2.4104 -0.3538 2.1649 -1.4415 -11.1573 -4.0501 -11.7130 6.0330 -4.9182 36.8716 3.7640 -2.7676 15.3446 0.0000 0.0000 0.0000 -84.9657 9.8141 13.6627 19.5490 -30.0951 -5.3033 -0.0000 0.0000 -8.0438 24.7526 18.3397 8.2545 -7.1250 0.0000 -0.0000 -3.3443 50.0037 -0.4129 0.0000 0.0000 0.0000 86.0590 -2.5007 27.3916 -25.4198 36.6300 -8.5391 0.0000 -0.0000 -12.8306 -23.1831 12.0156 -5.0946 7.1250 -0.0000 -0.0000 2.7966 -16.9532 1.8618
19.8193 20.0657 -11.6350 -4.8957 8.3567 -0.1835 0.0000 0.0000 0.0000 -17.5139 -11.9336 -14.2071 5.2414 13.6506 41.8554 0.0461 -20.8829 -15.0683 0.7803 5.6398 15.7427 0.0000 0.0000 0.0000 25.9092 -7.9599 -8.5434 -5.3029 -13.7170 42.1153 -2.1534 2.3451 -27.1453 -0.0416 1.3158 -3.6181 2.5505 3.0277 7.0588 1.5172 4.2318 2.4699 -0.2042 2.1159 -1.3302 -11.2382 -4.0540 -11.7350 5.9546 -4.8618 36.7831 3.7503 -2.7619 15.3013 0.0000 0.0000 0.0000 -84.9802 9.9771 13.5013 19.6497 -30.2180 -5.3539 -0.0000 0.0000 -9.4201 26.0915 19.6436 9.3485 -7.1250 0.0000 -0.0000 -2.3061 51.6405 -0.3773 0.0000 0.0000 0.0000 85.9133 -2.4197 27.4840 -25.4200 36.6302 -8.5392 0.0000 -0.0000 -13.3469 -22.8381 11.7879 -4.9173 7.1250 -0.0000 -0.0000 3.0268 -17.2319 1.9971
19.8139 20.0595 -11.6031 -5.1177 8.7668 -0.2558 0.0000 0.0000 0.0000 -17.2794 -12.1436 -14.0646 5.2588 13.6694 41.9290 0.0437 -21.0041 -15.1337 0.7796 5.6372 15.7354 0.0000 0.0000 0.0000 26.2308 -8.1627 -8.5221 -5.3378 -13.7544 42.2624 -2.1551 2.2659 -27.1752 -0.0258 1.0372 -2.8512 2.6298 3.1027 7.0242 1.5433 4.3349 2.5243 -0.2250 2.1691 -1.2489 -11.1991 -4.1842 -11.7408 5.8820 -5.0309 36.6748 3.6798 -2.8331 15.2674 -0.0000 -0.0000 0.0000 -84.8685 9.8256 13.2084 19.4796 -30.0103 -5.2686 -0.0000 0.0000 -9.8987 26.9558 20.5195 10.1075 -7.1250 0.0000 -0.0000 -1.6285 52.7495 -0.3106 -0.0000 -0.0000 0.0000 85.9017 -2.3485 27.1871 -25.4697 36.6802 -8.5689 0.0000 -0.0000 -13.7498 -22.5944 11.5458 -4.7613 7.1250 -0.0000 -0.0000 3.1869 -17.5149 2.0833
19.8098 20.0535 -11.5743 -5.2442 9.0884 -0.3119 0.0000 0.0000 0.0000 -17.1528 -12.3366 -13.8807 5.2765 13.6886 42.0040 0.0379 -21.1647 -15.2011 0.7980 5.7017 15.9213 0.0000 0.0000 0.0000 26.4201 -8.3831 -8.4998 -5.3725 -13.7914 42.4082 -2.1438 2.2391 -27.1076 -0.0176 0.8572 -2.3560 2.6482 3.2631 7.0104 1.5183 4.5482 2.5372 -0.2752 2.2762 -1.2199 -11.1485 -4.3398 -11.5416 5.8897 -5.2932 36.6050 3.6301 -2.9346 15.2171 -0.0000 -0.0000 0.0000 -84.6892 9.6070 12.2175 18.9549 -29.3625 -5.0087 -0.0000 0.0000 -8.6617 25.5065 19.3514 8.9839 -7.1250 0.0000 -0.0000 -2.8280 51.2208 -0.4337 -0.0000 -0.0000 0.0000 85.9827 -2.5438 26.8114 -25.5682 36.7791 -8.6278 0.0000 -0.0000 -13.6051 -22.8682 11.2406 -4.6999 7.1250 -0.0000 -0.0000 2.9827 -17.8178 1.9296
